<svg width="282" height="68" viewBox="0 0 282 68" fill="none" xmlns="http://www.w3.org/2000/svg">
<path d="M3.56689 7.08936H50.2885L56.7237 14.3048V19.5206L51.9744 24.7078L26.3376 27.0412L6.702 26.9227L7.33332 21.9042L8.39151 13.7986L6.35046 7.98679L3.56689 7.08936Z" fill="white"/>
<path d="M8.39136 12.2329H24.5188" stroke="#010101" stroke-width="1.07692"/>
<path d="M8.39136 15.8013H39.0608" stroke="#010101" stroke-width="1.07692"/>
<path d="M8.39136 19.521H39.0608" stroke="#010101" stroke-width="1.07692"/>
<path d="M39.2296 27.7591C26.7358 27.7591 8.36284 27.6514 3.03245 27.6191C2.4083 27.6155 1.8272 27.3678 1.38958 26.9263C0.951958 26.4848 0.715213 25.896 0.718801 25.2714C0.725975 23.9935 1.76981 22.956 3.04681 22.956C8.4023 22.9883 26.8004 23.096 39.2583 23.096C43.265 23.096 46.3212 23.0853 48.3407 23.0637C50.6078 23.0386 53.3232 22.0012 54.2702 19.7396C55.4001 17.0509 54.7365 13.9243 53.5779 12.0145C52.3403 9.97194 50.0805 8.70475 47.6771 8.70475H3.04681C1.76263 8.70475 0.71521 7.66014 0.71521 6.37142C0.71521 5.0827 1.75905 4.03809 3.04681 4.03809H47.6771C51.6982 4.03809 55.4862 6.16682 57.5631 9.59143C59.7261 13.156 60.1171 17.8478 58.5675 21.5417C57.0143 25.2463 53.0183 27.6694 48.391 27.7196C46.3499 27.7484 43.2686 27.7591 39.2296 27.7591Z" fill="#FB9649"/>
<path d="M47.6808 4.75963C51.4543 4.75963 55.0056 6.75553 56.9533 9.96835C58.998 13.3427 59.3746 17.7796 57.9075 21.2689C56.4619 24.7078 52.7242 26.9622 48.3838 27.0089C46.1921 27.034 42.9709 27.0412 39.2296 27.0412C26.7717 27.0412 8.51712 26.9335 3.03608 26.9012C2.14649 26.894 1.42908 26.1689 1.43625 25.275C1.44343 24.3884 2.16084 23.6704 3.04684 23.6704C3.05043 23.6704 3.05402 23.6704 3.0576 23.6704C8.54223 23.7027 26.8219 23.8104 39.2619 23.8104C42.9781 23.8104 46.1706 23.7996 48.348 23.7781C50.8517 23.7494 53.8577 22.5755 54.9338 20.016C56.1606 17.094 55.4468 13.7053 54.1949 11.6412C52.8282 9.3868 50.3316 7.9868 47.6808 7.9868H3.04684C2.15725 7.9868 1.43266 7.26527 1.43266 6.37142C1.43266 5.48116 2.15366 4.75603 3.04684 4.75603H47.6808M47.6808 3.32373H3.04684C1.36809 3.32373 -0.00216633 4.69142 -0.00216633 6.37501C-0.00216633 8.0586 1.36451 9.42629 3.04684 9.42629H47.6772C49.8294 9.42629 51.8561 10.5607 52.9645 12.3914C53.994 14.0858 54.6325 17.0258 53.6066 19.4668C52.7887 21.416 50.2957 22.3278 48.33 22.3494C46.3141 22.3709 43.2615 22.3817 39.2583 22.3817C26.8148 22.3817 8.40593 22.274 3.06119 22.2417C3.05761 22.2417 3.04684 22.2417 3.04325 22.2417C1.37526 22.2417 0.00859488 23.6022 -0.00216633 25.2714C-0.0057534 26.0863 0.302728 26.8545 0.876659 27.4325C1.447 28.014 2.21106 28.3371 3.02532 28.3407C8.35929 28.373 26.7323 28.4807 39.2296 28.4807C43.2722 28.4807 46.3571 28.4699 48.4018 28.4483C53.316 28.3945 57.5667 25.7955 59.2311 21.8289C60.8704 17.9268 60.4543 12.9801 58.1801 9.22527C55.9741 5.58168 51.9494 3.32373 47.6808 3.32373Z" fill="#010101"/>
<path d="M7.10356 8.4458C7.10356 8.4458 11.1821 12.4484 6.75562 23.2786" stroke="#090909" stroke-width="1.79487"/>
<path d="M3.56689 32.4116H50.2885L56.7237 39.627V44.8429L51.9744 50.0301L26.3376 52.3634L6.702 52.245L7.33332 47.2229L8.39151 39.1209L6.35046 33.3091L3.56689 32.4116Z" fill="white"/>
<path d="M8.75 38.2524H39.4194" stroke="#010101" stroke-width="0.717949" stroke-linecap="square" stroke-linejoin="bevel"/>
<path d="M8.39136 41.9712H25.6452" stroke="#010101" stroke-width="0.717949" stroke-linecap="square" stroke-linejoin="bevel"/>
<path d="M39.2296 53.0809C26.7358 53.0809 8.36284 52.9732 3.03245 52.9409C2.4083 52.9373 1.8272 52.6896 1.38958 52.2481C0.951958 51.8029 0.715213 51.2178 0.718801 50.5932C0.725975 49.3152 1.7734 48.2778 3.04681 48.2778C8.38437 48.3101 26.7322 48.4178 39.2654 48.4178C43.2686 48.4178 46.3212 48.407 48.3407 48.3855C50.6078 48.3604 53.3232 47.3229 54.2702 45.0614C55.4001 42.3727 54.7365 39.2424 53.5779 37.3363C52.3403 35.2937 50.0805 34.0265 47.6771 34.0265H3.04681C1.76263 34.0265 0.71521 32.9819 0.71521 31.6932C0.71521 30.4045 1.75905 29.3599 3.04681 29.3599H47.6771C51.6982 29.3599 55.4862 31.4886 57.5631 34.9132C59.7261 38.4778 60.1171 43.1696 58.5675 46.8635C57.0143 50.5681 53.0183 52.9911 48.391 53.0414C46.3678 53.0701 43.283 53.0809 39.2296 53.0809Z" fill="#FB9649"/>
<path d="M47.6808 30.078C51.4543 30.078 55.0056 32.0739 56.9533 35.2867C58.998 38.6611 59.3746 43.098 57.9075 46.5872C56.4619 50.0262 52.7242 52.2805 48.3838 52.3272C46.1921 52.3523 42.9709 52.3595 39.2296 52.3595C26.7717 52.3595 8.51712 52.2518 3.03608 52.2195C2.14649 52.2123 1.42908 51.4872 1.43625 50.5934C1.44343 49.7067 2.16084 48.9888 3.04684 48.9888C3.05043 48.9888 3.05402 48.9888 3.0576 48.9888C8.54223 49.0211 26.8255 49.1288 39.2655 49.1288C42.9817 49.1288 46.1742 49.118 48.3515 49.0964C50.8553 49.0677 53.8613 47.8939 54.9374 45.3344C56.1642 42.4123 55.4503 39.0236 54.1985 36.9595C52.8318 34.7052 50.3352 33.3052 47.6843 33.3052H3.04684C2.15725 33.3052 1.43266 32.5836 1.43266 31.6898C1.43266 30.7995 2.15366 30.0744 3.04684 30.0744H47.6808M47.6808 28.6421H3.04684C1.36809 28.6421 -0.00216633 30.0098 -0.00216633 31.6934C-0.00216633 33.377 1.36451 34.7447 3.04684 34.7447H47.6772C49.8294 34.7447 51.8561 35.879 52.9645 37.7098C53.994 39.4041 54.6325 42.3441 53.6066 44.7852C52.7887 46.7344 50.2957 47.6462 48.33 47.6677C46.3141 47.6893 43.2615 47.7 39.2583 47.7C26.8183 47.7 8.40593 47.5923 3.06119 47.56H3.04325C1.37526 47.56 0.00859488 48.9205 -0.00216633 50.5898C-0.0057534 51.4046 0.302728 52.1728 0.876659 52.7508C1.447 53.3323 2.21106 53.6554 3.02532 53.659C8.35929 53.6913 26.7287 53.799 39.2296 53.799C43.2722 53.799 46.3571 53.7882 48.4018 53.7667C53.316 53.7129 57.5667 51.1139 59.2311 47.1472C60.8704 43.2452 60.4543 38.2985 58.1801 34.5436C55.9741 30.9036 51.9494 28.6421 47.6808 28.6421Z" fill="#010101"/>
<path d="M7.28309 34.3608C7.28309 34.3608 10.845 40.5855 6.7522 48.0952" stroke="#010101" stroke-width="1.4359" stroke-linecap="square" stroke-linejoin="bevel"/>
<path d="M44.2478 34.5076L41.6041 40.7538L40.2267 40.4738V15.2092L40.9441 14.4912H49.3594L50.0768 15.2092V16.3148L49.3665 17.0328L48.3227 17.0435V40.4738L46.9453 40.7574L44.2478 34.5076Z" fill="#262425"/>
<path d="M49.3594 15.2088V16.3145L47.6053 16.3324V40.4735L44.2406 32.6837L40.9441 40.4735V15.2088H49.3594ZM49.3594 13.7729H40.9441L39.5093 15.2088V40.4735L42.2641 41.0335L44.2514 36.3345L46.2853 41.0442L49.0365 40.4735V17.754L49.3701 17.7504L50.7906 16.3145V15.2088L49.3594 13.7729Z" fill="white"/>
<path d="M141.683 55.2563C141.683 58.7311 140.155 60.4686 137.099 60.4686C135.74 60.4686 133.77 59.7578 131.191 58.3399C128.34 56.7711 125.947 55.985 124.01 55.985C119.849 55.985 115.928 57.787 112.244 61.3947C110.48 63.1322 109.095 65.1783 108.094 67.5332C108.026 67.2352 107.994 66.7578 107.994 66.1045C107.994 63.8609 108.603 61.628 109.827 59.406C110.946 57.3491 112.399 55.6332 114.181 54.2511C116.183 52.7004 118.468 51.925 121.033 51.925C122.798 51.925 124.333 52.2516 125.642 52.905C126.338 53.2604 127.68 54.1758 129.667 55.6511C131.363 56.9219 132.662 57.5573 133.562 57.5573C135.804 57.5573 137.587 56.5378 138.911 54.5024C139.488 53.6229 139.775 52.765 139.775 51.925C139.775 50.4496 139.366 49.2111 138.552 48.2132C137.738 47.2152 136.669 46.7127 135.345 46.7127C134.122 46.7127 132.11 47.3911 129.312 48.7445C126.51 50.0978 124.498 50.7763 123.278 50.7763C122.378 50.7763 121.291 50.2809 120.018 49.2901C117.37 47.2152 116.047 45.2804 116.047 43.4819C116.047 42.4911 116.549 41.5829 117.55 40.7609C118.45 39.9927 119.375 39.5655 120.326 39.4722L120.376 39.1635L119.128 37.2286C118.432 36.1445 118.084 34.9742 118.084 33.7214C118.084 29.4209 121.266 27.2706 127.633 27.2706C127.819 27.2311 127.945 27.066 128.013 26.7645V23.6522H112.305C112.305 21.7963 113.808 20.2886 115.666 20.2886H141.027V23.6522H131.988V28.3798C131.988 29.2629 132.217 29.805 132.673 30.0132C132.96 30.0132 133.322 29.7224 133.763 29.1373L134.742 27.8594C134.997 27.5758 135.456 27.3891 136.116 27.2958C137.185 27.2958 138.204 27.967 139.169 29.3132C139.61 29.9306 139.897 30.5445 140.033 31.1619L137.361 34.5255C137.325 33.6675 137.167 32.8814 136.877 32.1706C136.486 31.2193 135.976 30.7419 135.349 30.7419C135.112 30.7419 134.832 30.864 134.509 31.1045C134.186 31.3486 134.025 31.5891 134.025 31.8332C134.025 32.1132 134.136 32.4506 134.355 32.8419C134.61 33.3086 134.753 33.5993 134.789 33.7106C134.907 34.1414 134.968 34.6834 134.968 35.3368C134.968 37.8604 134.036 39.5691 132.167 40.4665C130.929 41.066 128.974 41.364 126.309 41.364C122.912 41.364 120.595 42.1968 119.357 43.8588C118.866 44.5122 118.629 45.0434 118.644 45.4563C118.662 46.0163 118.916 46.5081 119.408 46.9281C119.899 47.3481 120.409 47.5598 120.936 47.5598C121.904 47.5598 123.762 46.824 126.514 45.345C129.756 43.6075 132.371 42.7209 134.355 42.6814C136.17 42.6455 137.698 43.5322 138.939 45.345C139.94 46.7845 140.661 48.6152 141.102 50.8373C141.486 52.7901 141.683 54.2655 141.683 55.2563ZM131.776 32.7522C131.776 30.4906 130.682 29.3599 128.49 29.3599C126.725 29.3599 125.054 30.0419 123.475 31.406C121.779 32.8634 120.929 34.5363 120.929 36.4209C120.929 37.4475 121.291 38.327 122.012 39.0558C122.733 39.7845 123.562 40.147 124.494 40.147C125.463 40.165 126.557 39.7845 127.78 38.9983C128.867 38.3055 129.767 37.505 130.477 36.5896C131.345 35.4696 131.776 34.1916 131.776 32.7522Z" fill="#010101"/>
<path d="M169.106 23.6453H147.792V41.63C147.792 42.8253 148.022 44.0602 148.481 45.3346C149.413 47.9335 150.96 49.233 153.115 49.233C156.017 49.233 158.223 47.8976 159.737 45.2269C160.91 43.1735 161.495 41.2387 161.495 39.4258V28.2725C164.35 28.2725 166.664 30.5879 166.664 33.4453V52.1479C166.262 51.8858 165.505 51.4838 164.393 50.9417L163.503 50.5038C162.273 49.8971 161.495 48.6443 161.495 47.2694C159.486 48.8776 157.768 49.8935 156.337 50.3243C155.468 50.5864 154.439 50.7156 153.248 50.7156C149.471 50.7156 146.515 48.892 144.388 45.2448C143.416 43.5792 142.932 41.7664 142.932 39.8028V23.6453H139.85V20.2817H169.106V23.6453Z" fill="#010101"/>
<path d="M194.367 23.6453H168.622V20.2817H194.367V23.6453ZM192.254 33.7325C192.254 34.8346 191.651 36.0766 190.446 37.4587C189.427 38.6361 188.358 39.5156 187.239 40.0935L183.419 35.33C184.574 35.2187 185.668 34.752 186.705 33.9299C187.892 32.9966 188.488 31.9305 188.488 30.7351C188.488 30.0997 188.114 29.5576 187.368 29.1089C186.723 28.6997 186.088 28.4915 185.46 28.4915C184.154 28.4915 182.752 29.1843 181.26 30.5664C178.221 33.37 176.7 36.4715 176.7 39.871V51.753C173.677 50.0192 171.811 46.7992 171.811 43.3135V28.2151H174.573C175.75 28.2151 176.7 29.17 176.7 30.3438C177.432 29.5397 178.949 28.6997 181.249 27.8202C182.372 27.3894 183.53 27.174 184.725 27.174C187.193 27.174 189.287 28.2115 191.009 30.2828C191.834 31.2951 192.254 32.4438 192.254 33.7325Z" fill="#010101"/>
<path d="M222.453 23.6453H201.139V41.63C201.139 42.8253 201.369 44.0602 201.828 45.3346C202.76 47.9335 204.306 49.233 206.462 49.233C209.364 49.233 211.57 47.8976 213.084 45.2269C214.257 43.1735 214.842 41.2387 214.842 39.4258V28.2725C217.697 28.2725 220.011 30.5879 220.011 33.4453V52.1479C219.609 51.8858 218.852 51.4838 217.74 50.9417L214.842 49.513V47.2694C212.833 48.8776 211.115 49.8935 209.683 50.3243C208.815 50.5864 207.786 50.7156 206.595 50.7156C202.818 50.7156 199.862 48.892 197.735 45.2448C196.763 43.5792 196.279 41.7664 196.279 39.8028V23.6453H193.197V20.2817H222.453V23.6453Z" fill="#010101"/>
<path d="M245.981 23.6451H229.276V30.9036C230.277 30.2682 231.916 29.4389 234.19 28.4087C235.123 28.1287 236.253 27.9887 237.576 27.9887C239.391 27.9887 241.013 28.5379 242.441 29.64C244.037 30.8533 244.833 32.422 244.833 34.3461C244.833 36.9415 243.484 38.8261 240.79 40.0036C239.671 40.4882 238.706 40.7323 237.892 40.7323L241.321 45.3379C242.695 47.1831 242.358 49.7856 240.557 51.2215L231.468 39.3395L233.15 35.4984C234.05 35.7784 234.99 35.9184 235.977 35.9184C237.419 35.9184 238.599 35.5451 239.517 34.7984C240.554 33.9764 241.07 32.799 241.07 31.2661C241.07 29.7728 240.105 29.0225 238.179 29.0225C236.827 29.0225 235.388 29.7441 233.871 31.1872C232.788 32.2174 231.801 33.4631 230.905 34.9241C229.821 36.6831 229.283 38.1907 229.283 39.4472V51.2179C226.571 49.8933 224.853 47.14 224.853 44.121V23.6451H221.618V20.2815H224.699C224.699 14.9256 223.816 10.4779 222.052 6.93125C221.711 6.24202 221.058 5.2046 220.089 3.82614C219.171 2.50152 218.536 1.44614 218.181 0.663574H218.597C221.976 0.663574 225.047 2.63794 226.449 5.71435L226.457 5.7287C228.272 9.72049 229.183 14.5738 229.183 20.2815H245.988V23.6451H245.981Z" fill="#010101"/>
<path d="M274.164 23.6453H252.879V41.63C252.879 42.8253 253.108 44.0602 253.568 45.3346C254.5 47.9335 256.046 49.233 258.202 49.233C261.104 49.233 263.31 47.8976 264.824 45.2269C265.997 43.1735 266.581 41.2387 266.581 39.4258V28.2725C269.437 28.2725 271.75 30.5879 271.75 33.4453V52.1479C271.349 51.8858 270.592 51.4838 269.48 50.9417L266.581 49.513V47.2694C264.573 48.8776 262.854 49.8935 261.423 50.3243C260.555 50.5864 259.526 50.7156 258.335 50.7156C254.558 50.7156 251.602 48.892 249.475 45.2448C248.503 43.5792 248.018 41.7664 248.018 39.8028V23.6453H244.937V20.2817H274.168C274.182 20.2817 277.92 20.2925 277.92 20.3069V23.6166C277.92 23.6346 274.182 23.6453 274.164 23.6453Z" fill="#010101"/>
<path d="M281.704 16.9292V51.4446C281.536 51.3872 281.314 51.2866 281.041 51.1359L279.717 50.3784C279.703 50.3713 279.689 50.3605 279.671 50.3533C278.218 49.5277 277.321 47.9877 277.321 46.3149V16.9831C277.321 15.0195 276.973 12.9374 276.277 10.7297C275.309 7.64614 273.806 4.84255 271.772 2.31896L270.168 0.32666C274.265 0.32666 277.96 2.77844 279.57 6.55126C280.259 8.16306 280.783 9.89332 281.145 11.742C281.518 13.6482 281.704 15.3785 281.704 16.9292Z" fill="#010101"/>
<path d="M107.072 21.0752H82.615V24.1983H107.072V21.0752Z" fill="black"/>
<path d="M107.072 50.6333H82.615V53.7564H107.072V50.6333Z" fill="black"/>
<path d="M107.072 51.035V46.1816H103.951V51.035H107.072Z" fill="black"/>
<path d="M85.735 28.5665V23.5229H82.6142V28.5665H85.735Z" fill="black"/>
<path d="M82.615 50.6333L103.85 21.481L107.072 24.1984L86.0084 52.9953L82.615 50.6333Z" fill="black"/>
<path d="M73.3367 50.6325V29.3022H69.3945V50.6325H73.3367Z" fill="black"/>
<path d="M69.8079 32.8659V29.3013H66.1168V32.8659H69.8079Z" fill="black"/>
<path d="M76.5112 53.7556V50.4854H66.1159V53.7556H76.5112Z" fill="black"/>
<path d="M71.3661 26.474C72.8974 26.474 74.1389 25.2317 74.1389 23.6992C74.1389 22.1667 72.8974 20.9243 71.3661 20.9243C69.8347 20.9243 68.5933 22.1667 68.5933 23.6992C68.5933 25.2317 69.8347 26.474 71.3661 26.474Z" fill="black"/>
</svg>
