<svg width="32" height="32" viewBox="0 0 32 32" fill="none" xmlns="http://www.w3.org/2000/svg">
<path d="M9.74375 28.1542C9.1813 28.1542 8.7073 27.9614 8.32175 27.5758C7.93641 27.1903 7.74375 26.7164 7.74375 26.1542C7.74375 25.5917 7.93641 25.1177 8.32175 24.7322C8.7073 24.3468 9.1813 24.1542 9.74375 24.1542C10.3062 24.1542 10.7801 24.3468 11.1654 24.7322C11.551 25.1177 11.7437 25.5917 11.7437 26.1542C11.7437 26.7164 11.551 27.1903 11.1654 27.5758C10.7801 27.9614 10.3062 28.1542 9.74375 28.1542ZM22.2564 28.1542C21.694 28.1542 21.2201 27.9614 20.8347 27.5758C20.4492 27.1903 20.2564 26.7164 20.2564 26.1542C20.2564 25.5917 20.4492 25.1177 20.8347 24.7322C21.2201 24.3468 21.694 24.1542 22.2564 24.1542C22.8189 24.1542 23.2929 24.3468 23.6784 24.7322C24.0637 25.1177 24.2564 25.5917 24.2564 26.1542C24.2564 26.7164 24.0637 27.1903 23.6784 27.5758C23.2929 27.9614 22.8189 28.1542 22.2564 28.1542ZM7.84108 7.3335L11.4001 14.8208H20.2461C20.4001 14.8208 20.5369 14.7823 20.6564 14.7052C20.7762 14.6283 20.8787 14.5215 20.9641 14.3848L24.4514 8.0515C24.5539 7.8635 24.5624 7.69683 24.4771 7.5515C24.3915 7.40616 24.2462 7.3335 24.0411 7.3335H7.84108ZM7.18975 6.00016H24.5487C25.1283 6.00016 25.5642 6.2365 25.8564 6.70916C26.1489 7.18183 26.1643 7.66861 25.9027 8.1695L22.0924 15.1128C21.8993 15.4377 21.6484 15.6925 21.3397 15.8772C21.0313 16.0618 20.6924 16.1542 20.3231 16.1542H10.8001L9.17942 19.1285C9.04275 19.3336 9.03853 19.5558 9.16675 19.7952C9.29497 20.0345 9.4873 20.1542 9.74375 20.1542H23.5897C23.7795 20.1542 23.9381 20.2178 24.0654 20.3452C24.1927 20.4725 24.2564 20.6311 24.2564 20.8208C24.2564 21.0104 24.1927 21.1688 24.0654 21.2962C23.9381 21.4237 23.7795 21.4875 23.5897 21.4875H9.74375C8.96597 21.4875 8.38564 21.1597 8.00275 20.5042C7.61986 19.8486 7.61041 19.1901 7.97441 18.5285L9.97942 14.9542L5.07708 4.66683H3.33341C3.14364 4.66683 2.98508 4.60316 2.85775 4.47583C2.73041 4.3485 2.66675 4.18994 2.66675 4.00016C2.66675 3.81038 2.73041 3.65183 2.85775 3.5245C2.98508 3.39716 3.14364 3.3335 3.33341 3.3335H5.24375C5.45397 3.3335 5.64453 3.38738 5.81542 3.49516C5.9863 3.60272 6.11875 3.75305 6.21275 3.94616L7.18975 6.00016Z" fill="black"/>
</svg>
